<mxfile host="app.diagrams.net" modified="2022-12-12T04:02:54.285Z" agent="5.0 (Windows NT 10.0; Win64; x64) AppleWebKit/537.36 (KHTML, like Gecko) Chrome/107.0.0.0 Safari/537.36 Edg/107.0.1418.56" version="20.6.0" etag="_-knUlqHG40ez-ad-twb" type="github">
  <diagram id="dxVW-Z1BKEepmqgwWD4V" name="第 1 页">
    <mxGraphModel dx="1422" dy="754" grid="1" gridSize="10" guides="1" tooltips="1" connect="1" arrows="1" fold="1" page="1" pageScale="1" pageWidth="827" pageHeight="1169" math="0" shadow="0">
      <root>
        <mxCell id="0" />
        <mxCell id="1" parent="0" />
        <mxCell id="wlqvahv6N_QIGY_uk6yz-1" value="&lt;font style=&quot;font-size: 19px;&quot;&gt;关系&lt;/font&gt;" style="ellipse;whiteSpace=wrap;html=1;aspect=fixed;fillColor=#EA6B66;strokeColor=#FF0000;sketch=1;fillStyle=auto;" vertex="1" parent="1">
          <mxGeometry x="330" y="300.5" width="89" height="89" as="geometry" />
        </mxCell>
        <mxCell id="wlqvahv6N_QIGY_uk6yz-3" value="" style="edgeStyle=entityRelationEdgeStyle;startArrow=none;endArrow=none;segment=10;curved=1;rounded=0;fontSize=19;entryX=-0.018;entryY=0.38;entryDx=0;entryDy=0;entryPerimeter=0;exitX=1;exitY=0;exitDx=0;exitDy=0;" edge="1" target="wlqvahv6N_QIGY_uk6yz-4" parent="1" source="wlqvahv6N_QIGY_uk6yz-1">
          <mxGeometry relative="1" as="geometry">
            <mxPoint x="430" y="310" as="sourcePoint" />
            <mxPoint x="449" y="260" as="targetPoint" />
          </mxGeometry>
        </mxCell>
        <mxCell id="wlqvahv6N_QIGY_uk6yz-4" value="级关系：&#xa;层级、优先级" style="text;strokeColor=#6c8ebf;fillColor=#dae8fc;align=left;verticalAlign=middle;spacingLeft=4;spacingRight=4;overflow=hidden;rotatable=0;points=[[0,0.5],[1,0.5]];portConstraint=eastwest;fontSize=15;rounded=0;labelPosition=center;verticalLabelPosition=middle;whiteSpace=wrap;sketch=1;shadow=1;" vertex="1" parent="1">
          <mxGeometry x="459" y="240" width="101" height="50" as="geometry" />
        </mxCell>
        <mxCell id="wlqvahv6N_QIGY_uk6yz-5" value="" style="edgeStyle=entityRelationEdgeStyle;startArrow=none;endArrow=none;segment=10;curved=1;rounded=0;fontSize=19;exitX=0.98;exitY=0.38;exitDx=0;exitDy=0;exitPerimeter=0;entryX=0;entryY=0.5;entryDx=0;entryDy=0;" edge="1" parent="1" source="wlqvahv6N_QIGY_uk6yz-1" target="wlqvahv6N_QIGY_uk6yz-6">
          <mxGeometry relative="1" as="geometry">
            <mxPoint x="439" y="410" as="sourcePoint" />
            <mxPoint x="469" y="350" as="targetPoint" />
          </mxGeometry>
        </mxCell>
        <mxCell id="wlqvahv6N_QIGY_uk6yz-6" value="基本关系：&#xa;存在、有" style="text;strokeColor=#6c8ebf;fillColor=#dae8fc;align=left;verticalAlign=middle;spacingLeft=4;spacingRight=4;overflow=hidden;rotatable=0;points=[[0,0.5],[1,0.5]];portConstraint=eastwest;fontSize=15;rounded=0;labelPosition=center;verticalLabelPosition=middle;whiteSpace=wrap;sketch=1;shadow=1;" vertex="1" parent="1">
          <mxGeometry x="499" y="320" width="91" height="50" as="geometry" />
        </mxCell>
        <mxCell id="wlqvahv6N_QIGY_uk6yz-7" value="数量关系：&#xa;一对多、多对多" style="text;strokeColor=#6c8ebf;fillColor=#dae8fc;align=left;verticalAlign=middle;spacingLeft=4;spacingRight=4;overflow=hidden;rotatable=0;points=[[0,0.5],[1,0.5]];portConstraint=eastwest;fontSize=15;rounded=0;labelPosition=center;verticalLabelPosition=middle;whiteSpace=wrap;sketch=1;shadow=1;" vertex="1" parent="1">
          <mxGeometry x="459" y="410" width="120" height="50" as="geometry" />
        </mxCell>
        <mxCell id="wlqvahv6N_QIGY_uk6yz-8" value="" style="edgeStyle=entityRelationEdgeStyle;startArrow=none;endArrow=none;segment=10;curved=1;rounded=0;fontSize=19;exitX=1;exitY=1;exitDx=0;exitDy=0;" edge="1" parent="1" source="wlqvahv6N_QIGY_uk6yz-1">
          <mxGeometry relative="1" as="geometry">
            <mxPoint x="419" y="390" as="sourcePoint" />
            <mxPoint x="459" y="450" as="targetPoint" />
          </mxGeometry>
        </mxCell>
        <mxCell id="wlqvahv6N_QIGY_uk6yz-10" value="位置关系：&#xa;切、交、含" style="text;strokeColor=#6c8ebf;fillColor=#dae8fc;align=left;verticalAlign=middle;spacingLeft=4;spacingRight=4;overflow=hidden;rotatable=0;points=[[0,0.5],[1,0.5]];portConstraint=eastwest;fontSize=15;rounded=0;labelPosition=center;verticalLabelPosition=middle;whiteSpace=wrap;sketch=1;shadow=1;" vertex="1" parent="1">
          <mxGeometry x="200" y="420" width="90" height="50" as="geometry" />
        </mxCell>
        <mxCell id="wlqvahv6N_QIGY_uk6yz-11" value="" style="edgeStyle=entityRelationEdgeStyle;startArrow=none;endArrow=none;segment=10;curved=1;rounded=0;fontSize=19;" edge="1" parent="1" target="wlqvahv6N_QIGY_uk6yz-10">
          <mxGeometry relative="1" as="geometry">
            <mxPoint x="370" y="390" as="sourcePoint" />
            <mxPoint x="362.663" y="436.04999999999995" as="targetPoint" />
          </mxGeometry>
        </mxCell>
      </root>
    </mxGraphModel>
  </diagram>
</mxfile>
